<svg width="75" height="75" viewBox="0 0 75 75" fill="none" xmlns="http://www.w3.org/2000/svg">
<path d="M40.625 3.12511C40.625 2.29631 40.9542 1.50145 41.5403 0.915399C42.1263 0.329348 42.9212 0.000107712 43.75 0.000107712C52.0352 0.00920645 59.9785 3.30453 65.837 9.16307C71.6956 15.0216 74.9909 22.9649 75 31.2501C75 32.0789 74.6708 32.8738 74.0847 33.4598C73.4987 34.0459 72.7038 34.3751 71.875 34.3751C71.0462 34.3751 70.2513 34.0459 69.6653 33.4598C69.0792 32.8738 68.75 32.0789 68.75 31.2501C68.7426 24.622 66.1062 18.2675 61.4194 13.5807C56.7326 8.89386 50.3781 6.25755 43.75 6.25011C42.9212 6.25011 42.1263 5.92087 41.5403 5.33482C40.9542 4.74877 40.625 3.95391 40.625 3.12511ZM43.75 18.7501C47.0652 18.7501 50.2446 20.0671 52.5888 22.4113C54.933 24.7555 56.25 27.9349 56.25 31.2501C56.25 32.0789 56.5792 32.8738 57.1653 33.4598C57.7513 34.0459 58.5462 34.3751 59.375 34.3751C60.2038 34.3751 60.9987 34.0459 61.5847 33.4598C62.1708 32.8738 62.5 32.0789 62.5 31.2501C62.495 26.2788 60.518 21.5126 57.0028 17.9973C53.4875 14.4821 48.7213 12.5051 43.75 12.5001C42.9212 12.5001 42.1263 12.8293 41.5403 13.4154C40.9542 14.0015 40.625 14.7963 40.625 15.6251C40.625 16.4539 40.9542 17.2488 41.5403 17.8348C42.1263 18.4209 42.9212 18.7501 43.75 18.7501ZM72.1656 52.3095C73.9766 54.1255 74.9936 56.5855 74.9936 59.1501C74.9936 61.7148 73.9766 64.1748 72.1656 65.9907L69.3219 69.2689C43.7281 93.772 -18.5531 31.5064 5.57188 5.83136L9.16563 2.70636C10.9837 0.945974 13.4217 -0.0278639 15.9522 -0.00447091C18.4827 0.0189221 20.9023 1.03767 22.6875 2.83136C22.7844 2.92823 28.575 10.4501 28.575 10.4501C30.2932 12.2552 31.2497 14.653 31.2456 17.1451C31.2416 19.6372 30.2772 22.0319 28.5531 23.8314L24.9344 28.3814C26.937 33.2473 29.8814 37.6696 33.5985 41.3942C37.3155 45.1187 41.7318 48.072 46.5938 50.0845L51.1719 46.4439C52.9716 44.7211 55.3658 43.7579 57.8572 43.7544C60.3485 43.7509 62.7455 44.7074 64.55 46.4251C64.55 46.4251 72.0687 52.2126 72.1656 52.3095ZM67.8656 56.8532C67.8656 56.8532 60.3875 51.1001 60.2906 51.0032C59.6468 50.3649 58.7769 50.0067 57.8703 50.0067C56.9637 50.0067 56.0938 50.3649 55.45 51.0032C55.3656 51.0907 49.0625 56.1126 49.0625 56.1126C48.6377 56.4507 48.1322 56.6723 47.5958 56.7556C47.0593 56.8389 46.5104 56.781 46.0031 56.5876C39.7046 54.2425 33.9836 50.5712 29.2276 45.8222C24.4717 41.0733 20.7919 35.3577 18.4375 29.0626C18.2287 28.5484 18.1607 27.9879 18.2403 27.4387C18.32 26.8894 18.5444 26.3713 18.8906 25.9376C18.8906 25.9376 23.9125 19.6314 23.9969 19.5501C24.6352 18.9063 24.9934 18.0364 24.9934 17.1298C24.9934 16.2232 24.6352 15.3533 23.9969 14.7095C23.9 14.6157 18.1469 7.13136 18.1469 7.13136C17.4934 6.54544 16.6406 6.23166 15.7633 6.25432C14.8859 6.27698 14.0504 6.63437 13.4281 7.25323L9.83438 10.3782C-7.79687 31.5782 46.175 82.5564 64.7531 65.0001L67.6 61.7189C68.2671 61.1009 68.6678 60.2478 68.7174 59.3398C68.767 58.4318 68.4615 57.5401 67.8656 56.8532Z" fill="white"/>
</svg>
