<svg width="75" height="75" viewBox="0 0 75 75" fill="none" xmlns="http://www.w3.org/2000/svg">
<g clip-path="url(#clip0_57_649)">
<path d="M37.5 0C28.3272 0.0269659 19.4806 3.40559 12.625 9.5L8.45938 5.33437C8.02234 4.89747 7.46558 4.59995 6.85948 4.47943C6.25338 4.3589 5.62515 4.42079 5.05421 4.65726C4.48327 4.89372 3.99526 5.29416 3.65187 5.80794C3.30849 6.32172 3.12514 6.92578 3.125 7.54375V21.875C3.125 22.7038 3.45424 23.4987 4.0403 24.0847C4.62635 24.6708 5.4212 25 6.25 25H20.5813C21.1992 24.9999 21.8033 24.8165 22.3171 24.4731C22.8308 24.1297 23.2313 23.6417 23.4677 23.0708C23.7042 22.4999 23.7661 21.8716 23.6456 21.2655C23.5251 20.6594 23.2275 20.1027 22.7906 19.6656L19.2438 16.1187C23.3828 12.5829 28.459 10.3243 33.8566 9.61683C39.2541 8.90938 44.7409 9.78353 49.6514 12.1332C54.5619 14.4829 58.6849 18.2072 61.5203 22.8541C64.3557 27.5011 65.7816 32.8711 65.625 38.3125C65.424 45.3433 62.5958 52.0436 57.6983 57.0921C52.8007 62.1405 46.1893 65.1706 39.1678 65.5849C32.1463 65.9991 25.2245 63.7674 19.7673 59.3298C14.3102 54.8922 10.7138 48.5709 9.6875 41.6125C9.54096 40.4811 8.98947 39.4411 8.13514 38.685C7.2808 37.9289 6.18146 37.5079 5.04063 37.5C4.37864 37.4915 3.72245 37.6243 3.1159 37.8896C2.50934 38.1549 1.96638 38.5466 1.52328 39.0385C1.08019 39.5304 0.747161 40.1112 0.546449 40.742C0.345737 41.3729 0.28196 42.0394 0.359379 42.6969C1.66004 51.903 6.32934 60.2995 13.4637 66.2615C20.5982 72.2234 29.6905 75.3271 38.9813 74.9719C48.3804 74.519 57.274 70.5818 63.9279 63.9279C70.5818 57.274 74.519 48.3804 74.9719 38.9813C75.1656 33.9372 74.3401 28.906 72.5447 24.1883C70.7494 19.4707 68.0211 15.1635 64.5229 11.5245C61.0248 7.88547 56.8287 4.98928 52.1856 3.00912C47.5425 1.02897 42.5477 0.0055259 37.5 0V0Z" fill="white"/>
<path d="M35.9375 21.875C34.6943 21.875 33.502 22.3689 32.6229 23.2479C31.7439 24.127 31.25 25.3193 31.25 26.5625V39.9781C31.2504 41.6356 31.9091 43.225 33.0813 44.3969L38.6844 50C39.5684 50.8539 40.7525 51.3263 41.9816 51.3157C43.2106 51.305 44.3863 50.812 45.2554 49.9429C46.1245 49.0738 46.6175 47.8981 46.6282 46.6691C46.6388 45.44 46.1664 44.2559 45.3125 43.3719L40.625 38.6844V26.5625C40.625 25.3193 40.1311 24.127 39.2521 23.2479C38.373 22.3689 37.1807 21.875 35.9375 21.875Z" fill="white"/>
</g>
<defs>
<clipPath id="clip0_57_649">
<rect width="75" height="75" fill="white"/>
</clipPath>
</defs>
</svg>
