<svg width="57" height="75" viewBox="0 0 57 75" fill="none" xmlns="http://www.w3.org/2000/svg">
<path d="M56.625 75H50.375V59.2406C50.3725 56.7906 49.3982 54.4417 47.6657 52.7093C45.9333 50.9768 43.5844 50.0025 41.1344 50H15.8656C13.4156 50.0025 11.0667 50.9768 9.33426 52.7093C7.60184 54.4417 6.62748 56.7906 6.625 59.2406V75H0.375V59.2406C0.379962 55.1338 2.0136 51.1966 4.91758 48.2926C7.82156 45.3886 11.7588 43.755 15.8656 43.75H41.1344C45.2412 43.755 49.1784 45.3886 52.0824 48.2926C54.9864 51.1966 56.62 55.1338 56.625 59.2406V75Z" fill="white"/>
<path d="M28.5 37.5C24.7916 37.5 21.1665 36.4003 18.0831 34.3401C14.9996 32.2798 12.5964 29.3514 11.1773 25.9253C9.75811 22.4992 9.3868 18.7292 10.1103 15.0921C10.8337 11.4549 12.6195 8.11399 15.2417 5.49176C17.864 2.86952 21.2049 1.08376 24.8421 0.360284C28.4792 -0.363188 32.2492 0.00812411 35.6753 1.42727C39.1014 2.84641 42.0298 5.24964 44.09 8.33307C46.1503 11.4165 47.25 15.0416 47.25 18.75C47.245 23.7213 45.268 28.4875 41.7528 32.0028C38.2375 35.518 33.4713 37.495 28.5 37.5ZM28.5 6.25001C26.0277 6.25001 23.611 6.98312 21.5554 8.35664C19.4998 9.73016 17.8976 11.6824 16.9515 13.9665C16.0054 16.2505 15.7579 18.7639 16.2402 21.1886C16.7225 23.6134 17.913 25.8407 19.6612 27.5888C21.4093 29.337 23.6366 30.5275 26.0614 31.0098C28.4861 31.4921 30.9995 31.2446 33.2835 30.2985C35.5676 29.3524 37.5198 27.7502 38.8934 25.6946C40.2669 23.639 41 21.2223 41 18.75C41 15.4348 39.683 12.2554 37.3388 9.91117C34.9946 7.56697 31.8152 6.25001 28.5 6.25001Z" fill="white"/>
</svg>
