<svg width="75" height="75" viewBox="0 0 75 75" fill="none" xmlns="http://www.w3.org/2000/svg">
<path d="M28.0156 75H12.5C9.18479 75 6.00537 73.683 3.66117 71.3388C1.31696 68.9946 0 65.8152 0 62.5V46.875C0 43.5598 1.31696 40.3804 3.66117 38.0362C6.00537 35.692 9.18479 34.375 12.5 34.375H40.1781C41.8694 34.3758 43.5318 34.8132 45.0045 35.6448C46.4772 36.4764 47.7102 37.674 48.5844 39.1219L58.6375 28.075C59.469 27.1606 60.4726 26.419 61.5909 25.8927C62.7092 25.3664 63.9203 25.0656 65.1549 25.0075C66.3895 24.9495 67.6234 25.1353 68.7861 25.5544C69.9489 25.9735 71.0176 26.6176 71.9313 27.45C73.7543 29.1248 74.8468 31.4484 74.9736 33.9207C75.1005 36.393 74.2515 38.8162 72.6094 40.6688L51.3594 64.5344C48.4253 67.8251 44.829 70.4585 40.806 72.2621C36.7831 74.0657 32.4244 74.9987 28.0156 75ZM12.5 40.625C10.8424 40.625 9.25269 41.2835 8.08058 42.4556C6.90848 43.6277 6.25 45.2174 6.25 46.875V62.5C6.25 64.1576 6.90848 65.7473 8.08058 66.9194C9.25269 68.0915 10.8424 68.75 12.5 68.75H28.0156C31.5404 68.7486 35.0251 68.0023 38.2412 66.5601C41.4574 65.1179 44.3325 63.0123 46.6781 60.3813L67.9438 36.5125C68.4959 35.8906 68.7817 35.0767 68.7396 34.2462C68.6975 33.4156 68.3309 32.6348 67.7188 32.0719C67.0963 31.5123 66.2802 31.2174 65.4438 31.25C65.0291 31.2675 64.6222 31.3675 64.2466 31.544C63.871 31.7205 63.5343 31.9701 63.2563 32.2781L49.425 47.5C48.8178 49.1805 47.7656 50.6647 46.3809 51.794C44.9962 52.9234 43.3308 53.6556 41.5625 53.9125L25.4344 56.2188C24.6139 56.3364 23.7802 56.1234 23.1168 55.6264C22.4534 55.1294 22.0146 54.3893 21.8969 53.5688C21.7792 52.7482 21.9923 51.9146 22.4892 51.2512C22.9862 50.5878 23.7264 50.1489 24.5469 50.0312L40.6781 47.7281C41.5736 47.6029 42.3881 47.1426 42.9572 46.44C43.5263 45.7374 43.8075 44.8451 43.744 43.9432C43.6805 43.0413 43.277 42.1971 42.6151 41.5812C41.9533 40.9652 41.0823 40.6235 40.1781 40.625H12.5ZM34.375 28.3563C32.9586 28.3601 31.5836 27.8793 30.4781 26.9937C25.1281 22.7 18.75 16.25 18.75 10C18.6733 7.43239 19.6165 4.93889 21.3734 3.06489C23.1303 1.19089 25.5578 0.0889131 28.125 0C30.4604 0.00909632 32.7012 0.92443 34.375 2.55312C36.0488 0.92443 38.2896 0.00909632 40.625 0C43.1922 0.0889131 45.6197 1.19089 47.3766 3.06489C49.1335 4.93889 50.0767 7.43239 50 10C50 16.25 43.6219 22.7 38.2688 26.9969C37.1637 27.8806 35.7899 28.3602 34.375 28.3563ZM28.125 6.25C27.2167 6.34113 26.3805 6.78506 25.7961 7.48632C25.2117 8.18759 24.9259 9.09018 25 10C25 12.8125 28.5969 17.4688 34.3938 22.1219C40.1531 17.4688 43.75 12.8125 43.75 10C43.8242 9.09018 43.5383 8.18759 42.9539 7.48632C42.3695 6.78506 41.5333 6.34113 40.625 6.25C39.7167 6.34113 38.8805 6.78506 38.2961 7.48632C37.7117 8.18759 37.4259 9.09018 37.5 10C37.5 10.8288 37.1708 11.6237 36.5847 12.2097C35.9987 12.7958 35.2038 13.125 34.375 13.125C33.5462 13.125 32.7513 12.7958 32.1653 12.2097C31.5792 11.6237 31.25 10.8288 31.25 10C31.3242 9.09018 31.0383 8.18759 30.4539 7.48632C29.8695 6.78506 29.0333 6.34113 28.125 6.25Z" fill="white"/>
</svg>
