<svg width="75" height="75" viewBox="0 0 75 75" fill="none" xmlns="http://www.w3.org/2000/svg">
<path d="M37.5 50C35.0277 50 32.611 49.2669 30.5554 47.8934C28.4998 46.5199 26.8976 44.5676 25.9515 42.2836C25.0054 39.9995 24.7579 37.4861 25.2402 35.0614C25.7225 32.6366 26.913 30.4093 28.6612 28.6612C30.4093 26.913 32.6366 25.7225 35.0614 25.2402C37.4861 24.7579 39.9995 25.0054 42.2835 25.9515C44.5676 26.8976 46.5199 28.4998 47.8934 30.5554C49.2669 32.611 50 35.0277 50 37.5C50 40.8152 48.683 43.9946 46.3388 46.3388C43.9946 48.683 40.8152 50 37.5 50ZM37.5 31.25C36.2639 31.25 35.0555 31.6166 34.0277 32.3033C32.9999 32.9901 32.1988 33.9662 31.7258 35.1082C31.2527 36.2503 31.1289 37.5069 31.3701 38.7193C31.6112 39.9317 32.2065 41.0453 33.0806 41.9194C33.9547 42.7935 35.0683 43.3888 36.2807 43.6299C37.4931 43.8711 38.7497 43.7473 39.8918 43.2743C41.0338 42.8012 42.0099 42.0001 42.6967 40.9723C43.3834 39.9445 43.75 38.7361 43.75 37.5C43.75 35.8424 43.0915 34.2527 41.9194 33.0806C40.7473 31.9085 39.1576 31.25 37.5 31.25ZM56.25 71.875C56.25 66.9022 54.2746 62.1331 50.7583 58.6168C47.2419 55.1004 42.4728 53.125 37.5 53.125C32.5272 53.125 27.7581 55.1004 24.2417 58.6168C20.7254 62.1331 18.75 66.9022 18.75 71.875C18.75 72.7038 19.0792 73.4987 19.6653 74.0847C20.2513 74.6708 21.0462 75 21.875 75C22.7038 75 23.4987 74.6708 24.0847 74.0847C24.6708 73.4987 25 72.7038 25 71.875C25 68.5598 26.317 65.3804 28.6612 63.0362C31.0054 60.692 34.1848 59.375 37.5 59.375C40.8152 59.375 43.9946 60.692 46.3388 63.0362C48.683 65.3804 50 68.5598 50 71.875C50 72.7038 50.3292 73.4987 50.9153 74.0847C51.5013 74.6708 52.2962 75 53.125 75C53.9538 75 54.7487 74.6708 55.3347 74.0847C55.9208 73.4987 56.25 72.7038 56.25 71.875ZM56.25 25C53.7777 25 51.361 24.2669 49.3054 22.8934C47.2498 21.5199 45.6476 19.5676 44.7015 17.2835C43.7554 14.9995 43.5079 12.4861 43.9902 10.0614C44.4725 7.63661 45.663 5.40933 47.4112 3.66117C49.1593 1.91301 51.3866 0.722505 53.8114 0.24019C56.2361 -0.242126 58.7495 0.00541601 61.0335 0.951511C63.3176 1.89761 65.2699 3.49976 66.6434 5.55538C68.0169 7.61099 68.75 10.0277 68.75 12.5C68.75 15.8152 67.433 18.9946 65.0888 21.3388C62.7446 23.683 59.5652 25 56.25 25ZM56.25 6.25001C55.0139 6.25001 53.8055 6.61656 52.7777 7.30332C51.7499 7.99008 50.9488 8.9662 50.4758 10.1082C50.0027 11.2503 49.8789 12.5069 50.1201 13.7193C50.3612 14.9317 50.9565 16.0453 51.8306 16.9194C52.7047 17.7935 53.8183 18.3888 55.0307 18.6299C56.2431 18.8711 57.4997 18.7473 58.6418 18.2743C59.7838 17.8012 60.7599 17.0001 61.4467 15.9723C62.1334 14.9445 62.5 13.7361 62.5 12.5C62.5 10.8424 61.8415 9.25269 60.6694 8.08059C59.4973 6.90849 57.9076 6.25001 56.25 6.25001ZM75 46.875C74.995 41.9037 73.018 37.1375 69.5028 33.6222C65.9875 30.107 61.2213 28.13 56.25 28.125C55.4212 28.125 54.6263 28.4542 54.0403 29.0403C53.4542 29.6263 53.125 30.4212 53.125 31.25C53.125 32.0788 53.4542 32.8737 54.0403 33.4597C54.6263 34.0458 55.4212 34.375 56.25 34.375C59.5652 34.375 62.7446 35.692 65.0888 38.0362C67.433 40.3804 68.75 43.5598 68.75 46.875C68.75 47.7038 69.0792 48.4987 69.6653 49.0847C70.2513 49.6708 71.0462 50 71.875 50C72.7038 50 73.4987 49.6708 74.0847 49.0847C74.6708 48.4987 75 47.7038 75 46.875ZM18.75 25C16.2777 25 13.861 24.2669 11.8054 22.8934C9.74976 21.5199 8.1476 19.5676 7.20151 17.2835C6.25541 14.9995 6.00787 12.4861 6.49018 10.0614C6.9725 7.63661 8.16301 5.40933 9.91117 3.66117C11.6593 1.91301 13.8866 0.722505 16.3114 0.24019C18.7361 -0.242126 21.2495 0.00541601 23.5335 0.951511C25.8176 1.89761 27.7699 3.49976 29.1434 5.55538C30.5169 7.61099 31.25 10.0277 31.25 12.5C31.25 15.8152 29.933 18.9946 27.5888 21.3388C25.2446 23.683 22.0652 25 18.75 25ZM18.75 6.25001C17.5139 6.25001 16.3055 6.61656 15.2777 7.30332C14.2499 7.99008 13.4488 8.9662 12.9758 10.1082C12.5027 11.2503 12.3789 12.5069 12.6201 13.7193C12.8612 14.9317 13.4565 16.0453 14.3306 16.9194C15.2047 17.7935 16.3183 18.3888 17.5307 18.6299C18.7431 18.8711 19.9997 18.7473 21.1418 18.2743C22.2838 17.8012 23.2599 17.0001 23.9467 15.9723C24.6334 14.9445 25 13.7361 25 12.5C25 10.8424 24.3415 9.25269 23.1694 8.08059C21.9973 6.90849 20.4076 6.25001 18.75 6.25001ZM6.25 46.875C6.25 43.5598 7.56696 40.3804 9.91117 38.0362C12.2554 35.692 15.4348 34.375 18.75 34.375C19.5788 34.375 20.3737 34.0458 20.9597 33.4597C21.5458 32.8737 21.875 32.0788 21.875 31.25C21.875 30.4212 21.5458 29.6263 20.9597 29.0403C20.3737 28.4542 19.5788 28.125 18.75 28.125C13.7787 28.13 9.01246 30.107 5.49723 33.6222C1.982 37.1375 0.00496384 41.9037 0 46.875C0 47.7038 0.32924 48.4987 0.915291 49.0847C1.50134 49.6708 2.2962 50 3.125 50C3.9538 50 4.74866 49.6708 5.33471 49.0847C5.92076 48.4987 6.25 47.7038 6.25 46.875Z" fill="white"/>
</svg>
