<svg width="75" height="75" viewBox="0 0 75 75" fill="none" xmlns="http://www.w3.org/2000/svg">
<g clip-path="url(#clip0_41_360)">
<path d="M71.875 68.75H9.375C8.5462 68.75 7.75134 68.4208 7.16529 67.8347C6.57924 67.2487 6.25 66.4538 6.25 65.625V3.125C6.25 2.2962 5.92076 1.50134 5.33471 0.915291C4.74866 0.32924 3.9538 0 3.125 0C2.2962 0 1.50134 0.32924 0.915291 0.915291C0.32924 1.50134 0 2.2962 0 3.125L0 65.625C0 68.1114 0.98772 70.496 2.74587 72.2541C4.50403 74.0123 6.8886 75 9.375 75H71.875C72.7038 75 73.4987 74.6708 74.0847 74.0847C74.6708 73.4987 75 72.7038 75 71.875C75 71.0462 74.6708 70.2513 74.0847 69.6653C73.4987 69.0792 72.7038 68.75 71.875 68.75Z" fill="white"/>
<path d="M46.875 62.5C47.7038 62.5 48.4987 62.1708 49.0847 61.5847C49.6708 60.9987 50 60.2038 50 59.375V37.5C50 36.6712 49.6708 35.8763 49.0847 35.2903C48.4987 34.7042 47.7038 34.375 46.875 34.375C46.0462 34.375 45.2513 34.7042 44.6653 35.2903C44.0792 35.8763 43.75 36.6712 43.75 37.5V59.375C43.75 60.2038 44.0792 60.9987 44.6653 61.5847C45.2513 62.1708 46.0462 62.5 46.875 62.5Z" fill="white"/>
<path d="M21.875 62.5C22.7038 62.5 23.4987 62.1708 24.0847 61.5847C24.6708 60.9987 25 60.2038 25 59.375V37.5C25 36.6712 24.6708 35.8763 24.0847 35.2903C23.4987 34.7042 22.7038 34.375 21.875 34.375C21.0462 34.375 20.2513 34.7042 19.6653 35.2903C19.0792 35.8763 18.75 36.6712 18.75 37.5V59.375C18.75 60.2038 19.0792 60.9987 19.6653 61.5847C20.2513 62.1708 21.0462 62.5 21.875 62.5Z" fill="white"/>
<path d="M59.375 62.5C60.2038 62.5 60.9987 62.1708 61.5847 61.5847C62.1708 60.9987 62.5 60.2038 62.5 59.375V21.875C62.5 21.0462 62.1708 20.2513 61.5847 19.6653C60.9987 19.0792 60.2038 18.75 59.375 18.75C58.5462 18.75 57.7513 19.0792 57.1653 19.6653C56.5792 20.2513 56.25 21.0462 56.25 21.875V59.375C56.25 60.2038 56.5792 60.9987 57.1653 61.5847C57.7513 62.1708 58.5462 62.5 59.375 62.5Z" fill="white"/>
<path d="M34.375 62.5C35.2038 62.5 35.9987 62.1708 36.5847 61.5847C37.1708 60.9987 37.5 60.2038 37.5 59.375V21.875C37.5 21.0462 37.1708 20.2513 36.5847 19.6653C35.9987 19.0792 35.2038 18.75 34.375 18.75C33.5462 18.75 32.7513 19.0792 32.1653 19.6653C31.5792 20.2513 31.25 21.0462 31.25 21.875V59.375C31.25 60.2038 31.5792 60.9987 32.1653 61.5847C32.7513 62.1708 33.5462 62.5 34.375 62.5Z" fill="white"/>
</g>
<defs>
<clipPath id="clip0_41_360">
<rect width="75" height="75" fill="white"/>
</clipPath>
</defs>
</svg>
