<svg width="75" height="75" viewBox="0 0 75 75" fill="none" xmlns="http://www.w3.org/2000/svg">
<g clip-path="url(#clip0_41_372)">
<path d="M31.25 29.6875C31.25 30.9307 30.7561 32.123 29.877 33.0021C28.998 33.8811 27.8057 34.375 26.5625 34.375C25.3193 34.375 24.127 33.8811 23.2479 33.0021C22.3688 32.123 21.875 30.9307 21.875 29.6875C21.875 28.4443 22.3688 27.252 23.2479 26.3729C24.127 25.4939 25.3193 25 26.5625 25C27.8057 25 28.998 25.4939 29.877 26.3729C30.7561 27.252 31.25 28.4443 31.25 29.6875ZM48.4375 25C47.1943 25 46.002 25.4939 45.1229 26.3729C44.2438 27.252 43.75 28.4443 43.75 29.6875C43.75 30.9307 44.2438 32.123 45.1229 33.0021C46.002 33.8811 47.1943 34.375 48.4375 34.375C49.6807 34.375 50.873 33.8811 51.752 33.0021C52.6311 32.123 53.125 30.9307 53.125 29.6875C53.125 28.4443 52.6311 27.252 51.752 26.3729C50.873 25.4939 49.6807 25 48.4375 25ZM75 37.5C74.9892 27.5577 71.0349 18.0257 64.0046 10.9954C56.9743 3.96509 47.4423 0.0107534 37.5 0C-12.1875 1.875 -12.1656 73.125 37.5 75C47.4423 74.9893 56.9743 71.0349 64.0046 64.0046C71.0349 56.9743 74.9892 47.4423 75 37.5ZM68.75 37.5C68.7409 45.7852 65.4456 53.7285 59.587 59.587C53.7285 65.4456 45.7852 68.7409 37.5 68.75C-3.90315 67.1875 -3.88753 7.8125 37.5 6.25C45.7852 6.2591 53.7285 9.55442 59.587 15.413C65.4456 21.2715 68.7409 29.2148 68.75 37.5ZM55.4562 55.2063C55.7296 54.9001 55.9399 54.5431 56.0753 54.1557C56.2106 53.7683 56.2683 53.358 56.2451 52.9482C56.2219 52.5385 56.1182 52.1373 55.94 51.7677C55.7617 51.398 55.5124 51.0671 55.2062 50.7938C50.2441 46.5546 44.018 44.0778 37.5 43.75C36.6712 43.75 35.8763 44.0792 35.2903 44.6653C34.7042 45.2513 34.375 46.0462 34.375 46.875C34.375 47.7038 34.7042 48.4987 35.2903 49.0847C35.8763 49.6708 36.6712 50 37.5 50C42.482 50.3339 47.2281 52.2461 51.05 55.4594C51.6683 56.0091 52.4794 56.2911 53.3054 56.2437C54.1314 56.1962 54.9049 55.8231 55.4562 55.2063ZM15.625 50C15.625 51.6576 16.2835 53.2473 17.4556 54.4194C18.6277 55.5915 20.2174 56.25 21.875 56.25C23.5326 56.25 25.1223 55.5915 26.2944 54.4194C27.4665 53.2473 28.125 51.6576 28.125 50C27.5764 46.0815 25.9074 42.4049 23.3187 39.4125C20.1875 35.975 15.4781 47.35 15.625 50Z" fill="white"/>
</g>
<defs>
<clipPath id="clip0_41_372">
<rect width="75" height="75" fill="white"/>
</clipPath>
</defs>
</svg>
