<svg width="75" height="75" viewBox="0 0 75 75" fill="none" xmlns="http://www.w3.org/2000/svg">
<g clip-path="url(#clip0_41_366)">
<path d="M45.625 66.5625C44.6875 67.2688 43.6906 68.0125 42.8438 68.75H50C50.8288 68.75 51.6237 69.0792 52.2097 69.6653C52.7958 70.2513 53.125 71.0462 53.125 71.875C53.125 72.7038 52.7958 73.4987 52.2097 74.0847C51.6237 74.6708 50.8288 75 50 75H37.5C36.6712 75 35.8764 74.6708 35.2903 74.0847C34.7043 73.4987 34.375 72.7038 34.375 71.875C34.375 67.1875 38.3594 64.2 41.875 61.5625C44.2188 59.8063 46.875 57.8125 46.875 56.25C46.875 55.4212 46.5458 54.6263 45.9597 54.0403C45.3737 53.4542 44.5788 53.125 43.75 53.125C42.9212 53.125 42.1264 53.4542 41.5403 54.0403C40.9543 54.6263 40.625 55.4212 40.625 56.25C40.625 57.0788 40.2958 57.8737 39.7097 58.4597C39.1237 59.0458 38.3288 59.375 37.5 59.375C36.6712 59.375 35.8764 59.0458 35.2903 58.4597C34.7043 57.8737 34.375 57.0788 34.375 56.25C34.375 53.7636 35.3627 51.379 37.1209 49.6209C38.879 47.8627 41.2636 46.875 43.75 46.875C46.2364 46.875 48.621 47.8627 50.3791 49.6209C52.1373 51.379 53.125 53.7636 53.125 56.25C53.125 60.9375 49.1406 63.925 45.625 66.5625ZM71.875 46.875C71.0462 46.875 70.2514 47.2042 69.6653 47.7903C69.0793 48.3763 68.75 49.1712 68.75 50V59.375H65.625C64.7962 59.375 64.0014 59.0458 63.4153 58.4597C62.8293 57.8737 62.5 57.0788 62.5 56.25V50C62.5 49.1712 62.1708 48.3763 61.5847 47.7903C60.9987 47.2042 60.2038 46.875 59.375 46.875C58.5462 46.875 57.7514 47.2042 57.1653 47.7903C56.5793 48.3763 56.25 49.1712 56.25 50V56.25C56.25 58.7364 57.2377 61.121 58.9959 62.8791C60.754 64.6373 63.1386 65.625 65.625 65.625H68.75V71.875C68.75 72.7038 69.0793 73.4987 69.6653 74.0847C70.2514 74.6708 71.0462 75 71.875 75C72.7038 75 73.4987 74.6708 74.0847 74.0847C74.6708 73.4987 75 72.7038 75 71.875V50C75 49.1712 74.6708 48.3763 74.0847 47.7903C73.4987 47.2042 72.7038 46.875 71.875 46.875ZM40.625 37.5V21.875C40.625 21.0462 40.2958 20.2513 39.7097 19.6653C39.1237 19.0792 38.3288 18.75 37.5 18.75C36.6712 18.75 35.8764 19.0792 35.2903 19.6653C34.7043 20.2513 34.375 21.0462 34.375 21.875V34.375H25C24.1712 34.375 23.3764 34.7042 22.7903 35.2903C22.2042 35.8763 21.875 36.6712 21.875 37.5C21.875 38.3288 22.2042 39.1237 22.7903 39.7097C23.3764 40.2958 24.1712 40.625 25 40.625H37.5C38.3288 40.625 39.1237 40.2958 39.7097 39.7097C40.2958 39.1237 40.625 38.3288 40.625 37.5ZM71.875 6.25C71.0462 6.25 70.2514 6.57924 69.6653 7.16529C69.0793 7.75134 68.75 8.5462 68.75 9.375V16.7937C65.494 11.8799 61.1254 7.80288 55.9987 4.89345C50.8721 1.98401 45.1317 0.324138 39.2435 0.0485005C33.3552 -0.227137 27.4849 0.889227 22.1089 3.30701C16.7328 5.7248 12.0025 9.3759 8.30163 13.9641C4.60079 18.5522 2.03371 23.9482 0.808675 29.7143C-0.416359 35.4803 -0.264839 41.4538 1.25094 47.1503C2.76672 52.8468 5.60406 58.1057 9.53275 62.5004C13.4614 66.895 18.3708 70.3016 23.8625 72.4437C24.2254 72.5837 24.611 72.6558 25 72.6562C25.7293 72.6574 26.4359 72.4034 26.9977 71.9384C27.5594 71.4733 27.9408 70.8265 28.0758 70.1098C28.2108 69.3932 28.091 68.6519 27.737 68.0143C27.383 67.3768 26.8172 66.8831 26.1375 66.6188C21.4751 64.8159 17.3132 61.9208 14.0012 58.1766C10.6892 54.4324 8.32379 49.9482 7.10347 45.1006C5.88316 40.253 5.84358 35.1834 6.98805 30.3173C8.13253 25.4512 10.4277 20.9307 13.6808 17.1352C16.9339 13.3397 21.0501 10.3801 25.6838 8.50461C30.3175 6.62916 35.3335 5.89269 40.3107 6.35702C45.288 6.82134 50.0812 8.47292 54.288 11.1731C58.4949 13.8733 61.9926 17.5433 64.4875 21.875H56.25C55.4212 21.875 54.6264 22.2042 54.0403 22.7903C53.4543 23.3763 53.125 24.1712 53.125 25C53.125 25.8288 53.4543 26.6237 54.0403 27.2097C54.6264 27.7958 55.4212 28.125 56.25 28.125H65.625C68.1114 28.125 70.496 27.1373 72.2541 25.3791C74.0123 23.621 75 21.2364 75 18.75V9.375C75 8.5462 74.6708 7.75134 74.0847 7.16529C73.4987 6.57924 72.7038 6.25 71.875 6.25Z" fill="white"/>
</g>
<defs>
<clipPath id="clip0_41_366">
<rect width="75" height="75" fill="white"/>
</clipPath>
</defs>
</svg>
