<svg width="45" height="75" viewBox="0 0 45 75" fill="none" xmlns="http://www.w3.org/2000/svg">
<path d="M28.5375 12.5C31.0795 12.5025 33.5167 13.5134 35.3141 15.3109C37.1116 17.1083 38.1225 19.5455 38.125 22.0875C38.125 22.9163 38.4542 23.7112 39.0403 24.2972C39.6263 24.8833 40.4212 25.2125 41.25 25.2125C42.0788 25.2125 42.8737 24.8833 43.4597 24.2972C44.0458 23.7112 44.375 22.9163 44.375 22.0875V21.875C44.375 21.8156 44.375 21.7625 44.375 21.7031C44.2707 17.571 42.5567 13.6431 39.5982 10.7564C36.6398 7.86978 32.6709 6.25276 28.5375 6.25H25.625V3.125C25.625 2.2962 25.2958 1.50134 24.7097 0.915291C24.1237 0.32924 23.3288 0 22.5 0C21.6712 0 20.8763 0.32924 20.2903 0.915291C19.7042 1.50134 19.375 2.2962 19.375 3.125V6.25H16.4625C12.7041 6.25401 9.06966 7.59448 6.20873 10.0318C3.34781 12.4691 1.4469 15.8444 0.845791 19.5544C0.244677 23.2644 0.982534 27.0673 2.92748 30.2833C4.87242 33.4993 7.89767 35.9188 11.4625 37.1094L19.375 39.75V62.5H16.4625C13.9205 62.4975 11.4833 61.4866 9.68586 59.6891C7.88839 57.8917 6.87748 55.4545 6.875 52.9125C6.875 52.0837 6.54576 51.2888 5.95971 50.7028C5.37366 50.1167 4.5788 49.7875 3.75 49.7875C2.9212 49.7875 2.12634 50.1167 1.54029 50.7028C0.954241 51.2888 0.625 52.0837 0.625 52.9125V53.125C0.625 53.1844 0.625 53.2375 0.625 53.2969C0.729292 57.429 2.44332 61.3569 5.40176 64.2436C8.36021 67.1302 12.3291 68.7472 16.4625 68.75H19.375V71.875C19.375 72.7038 19.7042 73.4987 20.2903 74.0847C20.8763 74.6708 21.6712 75 22.5 75C23.3288 75 24.1237 74.6708 24.7097 74.0847C25.2958 73.4987 25.625 72.7038 25.625 71.875V68.75H28.5375C32.2959 68.746 35.9303 67.4055 38.7913 64.9682C41.6522 62.5309 43.5531 59.1556 44.1542 55.4456C44.7553 51.7356 44.0175 47.9327 42.0725 44.7167C40.1276 41.5007 37.1023 39.0812 33.5375 37.8906L25.625 35.25V12.5H28.5375ZM31.5688 43.8156C33.7295 44.5348 35.5636 45.9995 36.7429 47.9476C37.9221 49.8957 38.3695 52.2 38.0048 54.4478C37.6401 56.6957 36.4873 58.7403 34.7526 60.2157C33.0179 61.6911 30.8147 62.5008 28.5375 62.5H25.625V41.8344L31.5688 43.8156ZM19.375 33.1656L13.4375 31.1844C11.2773 30.4654 9.44347 29.0012 8.26417 27.0537C7.08487 25.1062 6.63708 22.8027 7.00094 20.5552C7.3648 18.3078 8.51656 16.2632 10.2501 14.7873C11.9836 13.3115 14.1858 12.5006 16.4625 12.5H19.375V33.1656Z" fill="white"/>
</svg>
