<svg width="38" height="320" viewBox="0 0 38 320" fill="none" xmlns="http://www.w3.org/2000/svg">
<path d="M36.0769 309.871C36.6738 309.296 36.6922 308.347 36.1178 307.75L26.7577 298.021C26.1833 297.424 25.2337 297.406 24.6368 297.981C24.0398 298.555 24.0215 299.505 24.5959 300.101L32.9159 308.749L24.2686 317.069C23.6716 317.643 23.6533 318.593 24.2277 319.19C24.8021 319.787 25.7516 319.805 26.3486 319.231L36.0769 309.871ZM37.9865 0.289244L27.9883 0.0964054L27.9305 3.09585L37.9286 3.28869L37.9865 0.289244ZM6.07774 21.1778L0.928946 288.128L3.92839 288.186L9.07718 21.2357L6.07774 21.1778ZM22.0103 310.039L35.0079 310.289L35.0658 307.29L22.0682 307.039L22.0103 310.039ZM0.928946 288.128C0.699967 300 10.1384 309.81 22.0103 310.039L22.0682 307.039C11.8528 306.842 3.73136 298.401 3.92839 288.186L0.928946 288.128ZM27.9883 0.0964054C16.1164 -0.132574 6.30672 9.30589 6.07774 21.1778L9.07718 21.2357C9.27421 11.0203 17.7151 2.89882 27.9305 3.09585L27.9883 0.0964054Z" fill="#434F70"/>
</svg>
