<svg width="35" height="246" viewBox="0 0 35 246" fill="none" xmlns="http://www.w3.org/2000/svg">
<path d="M34.4486 233.026C35.0313 233.615 35.0262 234.565 34.4373 235.147L24.8407 244.642C24.2518 245.225 23.3021 245.22 22.7194 244.631C22.1368 244.042 22.1418 243.092 22.7307 242.51L31.261 234.07L22.821 225.539C22.2384 224.95 22.2434 224.001 22.8323 223.418C23.4212 222.835 24.371 222.84 24.9536 223.429L34.4486 233.026ZM33.6092 3.57888L23.6094 3.52566L23.6253 0.5257L33.6252 0.578927L33.6092 3.57888ZM5.01115 21.9269L3.98919 213.924L0.989234 213.908L2.01119 21.911L5.01115 21.9269ZM22.3905 232.522L33.3903 232.581L33.3743 235.581L22.3745 235.522L22.3905 232.522ZM3.98919 213.924C3.93481 224.141 12.1733 232.468 22.3905 232.522L22.3745 235.522C10.5005 235.459 0.926032 225.782 0.989234 213.908L3.98919 213.924ZM23.6094 3.52566C13.3922 3.47127 5.06554 11.7098 5.01115 21.9269L2.01119 21.911C2.0744 10.037 11.7514 0.462497 23.6253 0.5257L23.6094 3.52566Z" fill="#434F70"/>
</svg>
