<svg width="34" height="230" viewBox="0 0 34 230" fill="none" xmlns="http://www.w3.org/2000/svg">
<path d="M0.93934 217.439C0.353553 218.025 0.353553 218.975 0.93934 219.561L10.4853 229.107C11.0711 229.692 12.0208 229.692 12.6066 229.107C13.1924 228.521 13.1924 227.571 12.6066 226.985L4.12132 218.5L12.6066 210.015C13.1924 209.429 13.1924 208.479 12.6066 207.893C12.0208 207.308 11.0711 207.308 10.4853 207.893L0.93934 217.439ZM0 3H12V0H0V3ZM30.5 21.5V198.5H33.5V21.5H30.5ZM12 217H2V220H12V217ZM30.5 198.5C30.5 208.717 22.2173 217 12 217V220C23.8741 220 33.5 210.374 33.5 198.5H30.5ZM12 3C22.2173 3 30.5 11.2827 30.5 21.5H33.5C33.5 9.62588 23.8741 0 12 0V3Z" fill="#434F70"/>
</svg>
