<svg width="109" height="131" viewBox="0 0 109 131" fill="none" xmlns="http://www.w3.org/2000/svg">
<path d="M68.1458 81.875C122.342 79.9482 122.303 1.91042 68.1458 0H46.3125C29.7574 0 16.2917 13.4712 16.2917 30.0208V65.5H8.10417C-2.65966 65.6856 -2.65421 81.6949 8.10417 81.875H16.2917V92.7917H8.10417C-2.65966 92.9772 -2.65421 108.987 8.10417 109.167H16.2917V122.812C16.4773 133.576 32.4865 133.571 32.6667 122.812V109.167H68.1458C78.9097 108.981 78.9042 92.9718 68.1458 92.7917H32.6667V81.875H68.1458ZM32.6667 30.0208C32.6667 22.4938 38.7909 16.375 46.3125 16.375H68.1458C100.541 17.2265 100.519 64.6594 68.1458 65.5H32.6667V30.0208Z" fill="#434F70" fill-opacity="0.5"/>
</svg>
