<svg width="253" height="304" viewBox="0 0 253 304" fill="none" xmlns="http://www.w3.org/2000/svg">
<path d="M158.667 190C284.434 185.529 284.345 4.43333 158.667 0H108C69.582 0 38.3333 31.2613 38.3333 69.6667V152H19.3333C-5.64535 152.431 -5.63268 189.582 19.3333 190H38.3333V215.333H19.3333C-5.64535 215.764 -5.63268 252.915 19.3333 253.333H38.3333V285C38.764 309.979 75.9153 309.966 76.3333 285V253.333H158.667C183.645 252.903 183.633 215.751 158.667 215.333H76.3333V190H158.667ZM76.3333 69.6667C76.3333 52.1993 90.5453 38 108 38H158.667C233.843 39.976 233.793 150.049 158.667 152H76.3333V69.6667Z" fill="#434F70"/>
</svg>
