<svg width="186" height="223" viewBox="0 0 186 223" fill="none" xmlns="http://www.w3.org/2000/svg">
<path d="M116.729 139.375C208.986 136.095 208.921 3.25208 116.729 0H79.5625C51.3809 0 28.4583 22.9318 28.4583 51.1042V111.5H14.5208C-3.80232 111.816 -3.79303 139.068 14.5208 139.375H28.4583V157.958H14.5208C-3.80232 158.274 -3.79303 185.527 14.5208 185.833H28.4583V209.062C28.7743 227.386 56.0267 227.376 56.3333 209.062V185.833H116.729C135.052 185.517 135.043 158.265 116.729 157.958H56.3333V139.375H116.729ZM56.3333 51.1042C56.3333 38.291 66.7586 27.875 79.5625 27.875H116.729C171.875 29.3245 171.838 110.069 116.729 111.5H56.3333V51.1042Z" fill="#434F70" fill-opacity="0.75"/>
</svg>
