<svg width="51" height="61" viewBox="0 0 51 61" fill="none" xmlns="http://www.w3.org/2000/svg">
<path d="M31.8542 38.125C57.0904 37.2278 57.0726 0.889583 31.8542 0H21.6875C13.9786 0 7.70834 6.27283 7.70834 13.9792V30.5H3.89584C-1.11633 30.5864 -1.11379 38.0411 3.89584 38.125H7.70834V43.2083H3.89584C-1.11633 43.2947 -1.11379 50.7495 3.89584 50.8333H7.70834V57.1875C7.79475 62.1997 15.2495 62.1971 15.3333 57.1875V50.8333H31.8542C36.8663 50.7469 36.8638 43.2922 31.8542 43.2083H15.3333V38.125H31.8542ZM15.3333 13.9792C15.3333 10.4742 18.1851 7.625 21.6875 7.625H31.8542C46.939 8.0215 46.9288 30.1086 31.8542 30.5H15.3333V13.9792Z" fill="#434F70" fill-opacity="0.25"/>
</svg>
