<svg width="130" height="130" viewBox="0 0 130 130" fill="none" xmlns="http://www.w3.org/2000/svg">
<path d="M65 0C52.1442 0 39.5771 3.81218 28.888 10.9545C18.1988 18.0968 9.86755 28.2484 4.94785 40.1256C0.028156 52.0028 -1.25906 65.0721 1.24898 77.6809C3.75702 90.2896 9.94767 101.872 19.0381 110.962C28.1285 120.052 39.7104 126.243 52.3192 128.751C64.9279 131.259 77.9972 129.972 89.8744 125.052C101.752 120.132 111.903 111.801 119.046 101.112C126.188 90.4229 130 77.8558 130 65C129.981 47.7667 123.127 31.2445 110.941 19.0586C98.7556 6.87282 82.2334 0.0186392 65 0V0ZM119.167 65C119.173 75.6151 116.041 85.9951 110.164 94.835L103.708 88.3729C103.201 87.8654 102.917 87.1777 102.917 86.4608V81.25C102.917 76.9402 101.205 72.807 98.1572 69.7595C95.1097 66.7121 90.9765 65 86.6667 65H70.4167C68.9801 65 67.6023 64.4293 66.5865 63.4135C65.5707 62.3977 65 61.0199 65 59.5833V56.875C65 56.1567 65.2854 55.4678 65.7933 54.9599C66.3012 54.452 66.9901 54.1667 67.7084 54.1667C71.2998 54.1667 74.7442 52.74 77.2838 50.2004C79.8233 47.6609 81.25 44.2165 81.25 40.625V35.2083C81.25 34.49 81.5354 33.8012 82.0433 33.2933C82.5512 32.7853 83.2401 32.5 83.9584 32.5H91.4279C95.0159 32.4898 98.4551 31.0651 100.999 28.535L103.041 26.4929C108.15 31.52 112.207 37.5139 114.976 44.1251C117.744 50.7363 119.169 57.8325 119.167 65ZM11.0988 70.2163L28.2046 87.3221C29.7099 88.8371 31.5011 90.0381 33.4742 90.8554C35.4473 91.6728 37.5631 92.0901 39.6988 92.0833H54.1667C55.6033 92.0833 56.981 92.654 57.9968 93.6698C59.0127 94.6857 59.5834 96.0634 59.5834 97.5V118.89C47.1261 117.619 35.4922 112.077 26.655 103.206C17.8179 94.3339 12.3217 82.6784 11.0988 70.2163ZM70.4167 118.89V97.5C70.4167 93.1902 68.7046 89.057 65.6572 86.0095C62.6097 82.9621 58.4765 81.25 54.1667 81.25H39.6988C38.9866 81.2506 38.2813 81.1107 37.6232 80.8383C36.9652 80.566 36.3673 80.1666 35.8638 79.6629L11.7163 55.5154C13.2664 46.7036 16.9799 38.4144 22.5235 31.3916C28.0671 24.3689 35.2674 18.8322 43.4785 15.2783C51.6895 11.7245 60.6544 10.2647 69.5688 11.0299C78.4831 11.795 87.0681 14.7613 94.5534 19.6625L93.34 20.8758C92.8301 21.3787 92.144 21.6624 91.4279 21.6667H83.9584C80.3669 21.6667 76.9225 23.0934 74.3829 25.6329C71.8434 28.1725 70.4167 31.6169 70.4167 35.2083V40.625C70.4167 41.3433 70.1313 42.0322 69.6234 42.5401C69.1155 43.048 68.4267 43.3333 67.7084 43.3333C64.1169 43.3333 60.6725 44.76 58.1329 47.2996C55.5934 49.8392 54.1667 53.2835 54.1667 56.875V59.5833C54.1667 63.8931 55.8787 68.0264 58.9262 71.0738C61.9737 74.1213 66.1069 75.8333 70.4167 75.8333H86.6667C88.1033 75.8333 89.481 76.404 90.4969 77.4198C91.5127 78.4357 92.0834 79.8134 92.0834 81.25V86.4608C92.0936 90.0488 93.5183 93.488 96.0484 96.0321L103.29 103.274C94.4692 112.126 82.8513 117.645 70.4167 118.89Z" fill="#434F70"/>
</svg>
