<svg width="130" height="130" viewBox="0 0 130 130" fill="none" xmlns="http://www.w3.org/2000/svg">
<path d="M65 0C47.7666 0.0186392 31.2445 6.87282 19.0586 19.0586C6.87282 31.2445 0.0186392 47.7666 0 65C3.25 151.125 126.75 151.087 130 65C129.981 47.7666 123.127 31.2445 110.941 19.0586C98.7555 6.87282 82.2333 0.0186392 65 0V0ZM65 119.167C50.6389 119.151 36.8706 113.439 26.7158 103.284C16.561 93.1294 10.8491 79.3611 10.8333 65C13.5417 -6.76 116.458 -6.73834 119.167 65C119.151 79.3611 113.439 93.1294 103.284 103.284C93.1294 113.439 79.3611 119.151 65 119.167ZM96.6442 84.1858C93.4615 89.7967 88.8664 94.4775 83.3153 97.7633C77.7642 101.049 71.4501 102.826 65 102.917C58.5454 102.827 52.2265 101.051 46.67 97.765C41.1136 94.4793 36.5125 89.7982 33.3233 84.1858C32.7474 83.2869 32.45 82.2379 32.4684 81.1705C32.4868 80.1031 32.8202 79.065 33.4267 78.1864C34.0332 77.3079 34.8858 76.6282 35.8774 76.2327C36.869 75.8371 37.9553 75.7434 39 75.9633C47.3291 79.1014 56.1068 80.8862 65 81.25C73.8786 80.8816 82.6413 79.0969 90.9567 75.9633C92.0021 75.7407 93.0901 75.8323 94.0836 76.2268C95.0771 76.6212 95.9316 77.3007 96.5397 78.1798C97.1478 79.0589 97.4822 80.0983 97.5008 81.167C97.5193 82.2358 97.2213 83.2861 96.6442 84.1858ZM102.917 46.8542C102.917 53.8958 93.7517 62.1183 89.1854 65.78C88.4711 66.3532 87.5826 66.6656 86.6667 66.6656C85.7508 66.6656 84.8623 66.3532 84.1479 65.78C53.2729 42.6021 84.4675 27.2729 86.6667 46.8542C86.6667 44.6993 87.5227 42.6327 89.0464 41.1089C90.5702 39.5852 92.6368 38.7292 94.7917 38.7292C96.9465 38.7292 99.0132 39.5852 100.537 41.1089C102.061 42.6327 102.917 44.6993 102.917 46.8542ZM27.0833 46.8542C27.0833 44.6993 27.9394 42.6327 29.4631 41.1089C30.9868 39.5852 33.0534 38.7292 35.2083 38.7292C37.3632 38.7292 39.4298 39.5852 40.9536 41.1089C42.4773 42.6327 43.3333 44.6993 43.3333 46.8542C45.5542 27.2621 76.7379 42.6292 45.8521 65.78C45.1377 66.3532 44.2492 66.6656 43.3333 66.6656C42.4174 66.6656 41.5289 66.3532 40.8146 65.78C36.2483 62.1183 27.0833 53.885 27.0833 46.8542Z" fill="#434F70"/>
</svg>
