<svg width="130" height="130" viewBox="0 0 130 130" fill="none" xmlns="http://www.w3.org/2000/svg">
<g clip-path="url(#clip0_49_441)">
<path d="M124.583 119.167H27.0833C22.7736 119.167 18.6403 117.455 15.5928 114.407C12.5454 111.36 10.8333 107.226 10.8333 102.917V5.41667C10.8333 3.98008 10.2627 2.60233 9.24683 1.5865C8.23101 0.570683 6.85326 0 5.41667 0C3.98008 0 2.60233 0.570683 1.5865 1.5865C0.570683 2.60233 0 3.98008 0 5.41667L0 102.917C0.0086009 110.097 2.86478 116.981 7.94202 122.058C13.0193 127.135 19.903 129.991 27.0833 130H124.583C126.02 130 127.398 129.429 128.413 128.413C129.429 127.398 130 126.02 130 124.583C130 123.147 129.429 121.769 128.413 120.753C127.398 119.737 126.02 119.167 124.583 119.167Z" fill="#434F70"/>
<path d="M32.5 108.333C33.9366 108.333 35.3143 107.763 36.3302 106.747C37.346 105.731 37.9167 104.353 37.9167 102.917V65C37.9167 63.5634 37.346 62.1856 36.3302 61.1698C35.3143 60.154 33.9366 59.5833 32.5 59.5833C31.0634 59.5833 29.6857 60.154 28.6698 61.1698C27.654 62.1856 27.0833 63.5634 27.0833 65V102.917C27.0833 104.353 27.654 105.731 28.6698 106.747C29.6857 107.763 31.0634 108.333 32.5 108.333Z" fill="#434F70"/>
<path d="M54.1667 54.1667V102.917C54.1667 104.353 54.7373 105.731 55.7532 106.747C56.769 107.763 58.1467 108.333 59.5833 108.333C61.0199 108.333 62.3977 107.763 63.4135 106.747C64.4293 105.731 65 104.353 65 102.917V54.1667C65 52.7301 64.4293 51.3523 63.4135 50.3365C62.3977 49.3207 61.0199 48.75 59.5833 48.75C58.1467 48.75 56.769 49.3207 55.7532 50.3365C54.7373 51.3523 54.1667 52.7301 54.1667 54.1667Z" fill="#434F70"/>
<path d="M81.25 70.4167V102.917C81.25 104.353 81.8207 105.731 82.8365 106.747C83.8523 107.763 85.2301 108.333 86.6667 108.333C88.1033 108.333 89.481 107.763 90.4968 106.747C91.5127 105.731 92.0833 104.353 92.0833 102.917V70.4167C92.0833 68.9801 91.5127 67.6023 90.4968 66.5865C89.481 65.5707 88.1033 65 86.6667 65C85.2301 65 83.8523 65.5707 82.8365 66.5865C81.8207 67.6023 81.25 68.9801 81.25 70.4167Z" fill="#434F70"/>
<path d="M108.333 48.75V102.917C108.333 104.353 108.904 105.731 109.92 106.747C110.936 107.763 112.313 108.333 113.75 108.333C115.187 108.333 116.564 107.763 117.58 106.747C118.596 105.731 119.167 104.353 119.167 102.917V48.75C119.167 47.3134 118.596 45.9356 117.58 44.9198C116.564 43.904 115.187 43.3333 113.75 43.3333C112.313 43.3333 110.936 43.904 109.92 44.9198C108.904 45.9356 108.333 47.3134 108.333 48.75Z" fill="#434F70"/>
<path d="M32.5 48.75C33.9365 48.7497 35.314 48.1788 36.3296 47.1629L55.7537 27.7388C56.7862 26.7552 58.1574 26.2066 59.5833 26.2066C61.0092 26.2066 62.3805 26.7552 63.4129 27.7388L75.1779 39.5038C78.2252 42.5502 82.3577 44.2616 86.6667 44.2616C90.9756 44.2616 95.1081 42.5502 98.1554 39.5038L128.413 9.24628C129.4 8.22468 129.946 6.85642 129.933 5.43619C129.921 4.01596 129.351 2.65739 128.347 1.65309C127.343 0.648801 125.984 0.0791356 124.564 0.0667941C123.144 0.0544527 121.775 0.600422 120.754 1.58711L90.4963 31.8392C89.4805 32.8547 88.103 33.4251 86.6667 33.4251C85.2304 33.4251 83.8529 32.8547 82.8371 31.8392L71.0721 20.0796C68.0248 17.0332 63.8923 15.3218 59.5833 15.3218C55.2744 15.3218 51.1419 17.0332 48.0946 20.0796L28.6704 39.5038C27.9131 40.2613 27.3974 41.2264 27.1885 42.2769C26.9796 43.3275 27.0869 44.4165 27.4967 45.4061C27.9066 46.3957 28.6007 47.2416 29.4913 47.8368C30.3818 48.432 31.4289 48.7498 32.5 48.75Z" fill="#434F70"/>
</g>
<defs>
<clipPath id="clip0_49_441">
<rect width="130" height="130" fill="white"/>
</clipPath>
</defs>
</svg>
