<svg width="130" height="130" viewBox="0 0 130 130" fill="none" xmlns="http://www.w3.org/2000/svg">
<g clip-path="url(#clip0_50_457)">
<path d="M124.583 81.25H120.97C119.616 81.25 118.273 81.353 116.935 81.5588L78.7692 52.9371L87.9125 44.1838C90.0737 42.1146 90.1496 38.6804 88.0804 36.5246C86.0058 34.3634 82.5717 34.2929 80.4212 36.3567L57.8175 57.9963C56.6908 59.1229 55.1579 59.7025 53.5492 59.5671C51.935 59.4371 50.5158 58.6192 49.5462 57.265C48.0621 55.2067 48.5171 51.9838 50.4562 50.0392L75.9308 26.0488C80.7571 21.515 88.3025 20.4046 94.2067 23.3675L106.752 29.64C110.489 31.5088 114.682 32.4946 118.858 32.4946H124.578C127.573 32.4946 129.995 30.0734 129.995 27.0779C129.995 24.0825 127.573 21.6613 124.578 21.6613H118.858C116.35 21.6613 113.831 21.0709 111.589 19.9496L99.0546 13.6771C89.1746 8.73169 76.5592 10.5679 68.4992 18.1621L65.1517 21.3146L61.36 17.8588C56.3821 13.325 49.9362 10.8279 42.9975 10.8279C38.8212 10.8279 34.6558 11.8138 30.9346 13.6717L18.4004 19.9442C16.1525 21.0654 13.6337 21.6559 11.1258 21.6559H5.41665C2.42124 21.6559 -1.54618e-05 24.0771 -1.54618e-05 27.0725C-1.54618e-05 30.0679 2.42124 32.4892 5.41665 32.4892H11.1367C15.3129 32.4892 19.5054 31.4979 23.2483 29.6346L35.7933 23.3621C41.3292 20.5779 49.1075 21.3309 54.0692 25.8646L57.2487 28.7625L42.9162 42.2609C37.1042 48.0675 36.1779 57.2488 40.7604 63.5917C43.5771 67.5079 49.1725 70.4113 53.9987 70.4113C58.2942 70.4113 62.4162 68.7213 65.3954 65.7367L70.8446 60.5205L105.219 86.2984C105.051 86.4175 71.6462 111.464 71.6462 111.464C67.73 114.508 62.2646 114.508 58.2671 111.405L25.2742 86.6613C20.6212 83.1675 14.8471 81.2446 9.02415 81.2446H5.41123C2.41582 81.2446 -0.00543213 83.6659 -0.00543213 86.6613C-0.00543213 89.6567 2.41582 92.0779 5.41123 92.0779H9.02415C12.5179 92.0779 15.9792 93.2317 18.7742 95.328L51.6912 120.017C55.6183 123.072 60.3254 124.6 65.0217 124.6C69.6908 124.6 74.3546 123.088 78.2221 120.077L111.226 95.3334C114.015 93.2371 117.477 92.0834 120.97 92.0834H124.583C127.579 92.0834 130 89.6621 130 86.6667C130 83.6713 127.579 81.25 124.583 81.25Z" fill="#434F70"/>
</g>
<defs>
<clipPath id="clip0_50_457">
<rect width="130" height="130" fill="white"/>
</clipPath>
</defs>
</svg>
