<svg width="130" height="130" viewBox="0 0 130 130" fill="none" xmlns="http://www.w3.org/2000/svg">
<g clip-path="url(#clip0_49_450)">
<path d="M102.917 130H92.0833C90.6467 130 89.269 129.429 88.2532 128.414C87.2373 127.398 86.6667 126.02 86.6667 124.583C86.6667 123.147 87.2373 121.769 88.2532 120.753C89.269 119.737 90.6467 119.167 92.0833 119.167H102.917C107.226 119.167 111.36 117.455 114.407 114.407C117.455 111.36 119.167 107.226 119.167 102.917V92.0834C119.167 90.6468 119.737 89.269 120.753 88.2532C121.769 87.2374 123.147 86.6667 124.583 86.6667C126.02 86.6667 127.398 87.2374 128.413 88.2532C129.429 89.269 130 90.6468 130 92.0834V102.917C129.991 110.097 127.135 116.981 122.058 122.058C116.981 127.135 110.097 129.991 102.917 130Z" fill="#434F70"/>
<path d="M5.41667 43.3333C3.98008 43.3333 2.60233 42.7626 1.5865 41.7468C0.570683 40.731 0 39.3533 0 37.9167V27.0833C0.0086009 19.903 2.86478 13.0193 7.94202 7.94202C13.0193 2.86478 19.903 0.0086009 27.0833 0L37.9167 0C39.3533 0 40.731 0.570683 41.7468 1.5865C42.7626 2.60233 43.3333 3.98008 43.3333 5.41667C43.3333 6.85326 42.7626 8.23101 41.7468 9.24683C40.731 10.2627 39.3533 10.8333 37.9167 10.8333H27.0833C22.7736 10.8333 18.6403 12.5454 15.5928 15.5928C12.5454 18.6403 10.8333 22.7736 10.8333 27.0833V37.9167C10.8333 39.3533 10.2627 40.731 9.24683 41.7468C8.23101 42.7626 6.85326 43.3333 5.41667 43.3333Z" fill="#434F70"/>
<path d="M37.9167 130H27.0833C19.903 129.991 13.0193 127.135 7.94202 122.058C2.86478 116.981 0.0086009 110.097 0 102.917L0 92.0834C0 90.6468 0.570683 89.269 1.5865 88.2532C2.60233 87.2374 3.98008 86.6667 5.41667 86.6667C6.85326 86.6667 8.23101 87.2374 9.24683 88.2532C10.2627 89.269 10.8333 90.6468 10.8333 92.0834V102.917C10.8333 107.226 12.5454 111.36 15.5928 114.407C18.6403 117.455 22.7736 119.167 27.0833 119.167H37.9167C39.3533 119.167 40.731 119.737 41.7468 120.753C42.7626 121.769 43.3333 123.147 43.3333 124.583C43.3333 126.02 42.7626 127.398 41.7468 128.414C40.731 129.429 39.3533 130 37.9167 130Z" fill="#434F70"/>
<path d="M124.583 43.3333C123.147 43.3333 121.769 42.7626 120.753 41.7468C119.737 40.731 119.167 39.3533 119.167 37.9167V27.0833C119.167 22.7736 117.455 18.6403 114.407 15.5928C111.36 12.5454 107.226 10.8333 102.917 10.8333H92.0833C90.6467 10.8333 89.269 10.2627 88.2532 9.24683C87.2373 8.23101 86.6667 6.85326 86.6667 5.41667C86.6667 3.98008 87.2373 2.60233 88.2532 1.5865C89.269 0.570683 90.6467 0 92.0833 0L102.917 0C110.097 0.0086009 116.981 2.86478 122.058 7.94202C127.135 13.0193 129.991 19.903 130 27.0833V37.9167C130 39.3533 129.429 40.731 128.413 41.7468C127.398 42.7626 126.02 43.3333 124.583 43.3333Z" fill="#434F70"/>
</g>
<defs>
<clipPath id="clip0_49_450">
<rect width="130" height="130" fill="white"/>
</clipPath>
</defs>
</svg>
