<svg width="130" height="130" viewBox="0 0 130 130" fill="none" xmlns="http://www.w3.org/2000/svg">
<path d="M117.737 88.8333C115.918 83.4703 112.466 78.8109 107.865 75.5082C103.265 72.2056 97.7465 70.4252 92.0834 70.4167H70.4167V64.545C78.4518 63.1868 85.6834 58.8597 90.6785 52.421C95.6736 45.9824 98.0677 37.9022 97.3862 29.7817C96.7047 21.6612 92.9975 14.093 86.9991 8.57699C81.0008 3.06094 73.1491 -0.000427246 65 -0.000427246C56.851 -0.000427246 48.9993 3.06094 43.0009 8.57699C37.0026 14.093 33.2953 21.6612 32.6139 29.7817C31.9324 37.9022 34.3264 45.9824 39.3215 52.421C44.3167 58.8597 51.5483 63.1868 59.5834 64.545V70.4167H37.9167C32.2535 70.4252 26.735 72.2056 22.1346 75.5082C17.5342 78.8109 14.0825 83.4703 12.2634 88.8333C7.61637 91.0752 3.92191 94.9018 1.84466 99.6246C-0.232602 104.347 -0.556302 109.657 0.931791 114.597C2.41988 119.537 5.62208 123.784 9.9623 126.574C14.3025 129.364 19.4958 130.513 24.6079 129.815C29.72 129.118 34.4153 126.618 37.8491 122.768C41.2829 118.917 43.2298 113.967 43.3395 108.808C43.4492 103.65 41.7145 98.622 38.4475 94.6286C35.1806 90.6351 30.5958 87.9386 25.5179 87.0242C27.0407 85.2184 28.9389 83.7663 31.0802 82.7691C33.2216 81.7719 35.5546 81.2535 37.9167 81.25H59.5834V87.3546C54.4773 88.673 50.0273 91.8083 47.0676 96.173C44.1079 100.538 42.8416 105.832 43.5061 111.063C44.1705 116.295 46.7202 121.104 50.6771 124.59C54.634 128.077 59.7265 130 65 130C70.2736 130 75.3661 128.077 79.323 124.59C83.2799 121.104 85.8295 116.295 86.494 111.063C87.1585 105.832 85.8922 100.538 82.9325 96.173C79.9727 91.8083 75.5228 88.673 70.4167 87.3546V81.25H92.0834C94.4442 81.2515 96.7764 81.7673 98.9177 82.7617C101.059 83.7561 102.958 85.2051 104.482 87.0079C99.4043 87.9224 94.8195 90.6189 91.5525 94.6123C88.2855 98.6057 86.5509 103.634 86.6606 108.792C86.7703 113.951 88.7171 118.9 92.1509 122.751C95.5847 126.602 100.28 129.101 105.392 129.799C110.504 130.497 115.698 129.348 120.038 126.558C124.378 123.768 127.58 119.521 129.068 114.581C130.556 109.64 130.233 104.331 128.155 99.6084C126.078 94.8855 122.384 91.0589 117.737 88.8171V88.8333ZM43.3334 32.5C43.3334 28.2147 44.6041 24.0257 46.9849 20.4627C49.3656 16.8996 52.7495 14.1225 56.7086 12.4826C60.6676 10.8427 65.0241 10.4136 69.227 11.2497C73.4299 12.0857 77.2905 14.1492 80.3207 17.1794C83.3508 20.2095 85.4144 24.0701 86.2504 28.273C87.0864 32.476 86.6573 36.8324 85.0174 40.7915C83.3775 44.7505 80.6004 48.1344 77.0374 50.5152C73.4743 52.8959 69.2853 54.1667 65 54.1667C59.2537 54.1667 53.7427 51.8839 49.6794 47.8207C45.6161 43.7574 43.3334 38.2464 43.3334 32.5ZM32.5 108.333C32.5 110.476 31.8647 112.57 30.6743 114.352C29.4839 116.134 27.792 117.522 25.8124 118.342C23.8329 119.162 21.6547 119.377 19.5532 118.959C17.4518 118.541 15.5214 117.509 14.0064 115.994C12.4913 114.479 11.4595 112.548 11.0415 110.447C10.6235 108.345 10.8381 106.167 11.658 104.188C12.478 102.208 13.8665 100.516 15.648 99.3258C17.4296 98.1354 19.5241 97.5 21.6667 97.5C24.5399 97.5 27.2954 98.6414 29.327 100.673C31.3587 102.705 32.5 105.46 32.5 108.333ZM75.8334 108.333C75.8334 110.476 75.198 112.57 74.0076 114.352C72.8172 116.134 71.1253 117.522 69.1458 118.342C67.1662 119.162 64.988 119.377 62.8866 118.959C60.7851 118.541 58.8548 117.509 57.3397 115.994C55.8246 114.479 54.7929 112.548 54.3749 110.447C53.9569 108.345 54.1714 106.167 54.9913 104.188C55.8113 102.208 57.1998 100.516 58.9814 99.3258C60.7629 98.1354 62.8574 97.5 65 97.5C67.8732 97.5 70.6287 98.6414 72.6604 100.673C74.692 102.705 75.8334 105.46 75.8334 108.333ZM108.333 119.167C106.191 119.167 104.096 118.531 102.315 117.341C100.533 116.151 99.1446 114.459 98.3247 112.479C97.5047 110.5 97.2902 108.321 97.7082 106.22C98.1262 104.118 99.158 102.188 100.673 100.673C102.188 99.1579 104.118 98.1262 106.22 97.7082C108.321 97.2902 110.5 97.5047 112.479 98.3246C114.459 99.1446 116.151 100.533 117.341 102.315C118.531 104.096 119.167 106.191 119.167 108.333C119.167 111.207 118.025 113.962 115.994 115.994C113.962 118.025 111.207 119.167 108.333 119.167Z" fill="#434F70"/>
</svg>
